<svg xmlns="http://www.w3.org/2000/svg" viewBox="0 0 40 40"><defs><style>.cls-1{fill:#da4a31;}.cls-2{fill:#fff;}</style></defs><title>40x40_ppt</title><g id="圖層_1" data-name="圖層 1"><g id="圖層_2" data-name="圖層 2"><rect class="cls-1" width="40" height="40"/></g></g><g id="圖層_2-2" data-name="圖層 2"><path class="cls-2" d="M32.75,14.4V33.23a1.57,1.57,0,0,1-1.57,1.57h-22a1.57,1.57,0,0,1-1.57-1.57V7.08A1.57,1.57,0,0,1,9.22,5.51H23.86a4.39,4.39,0,0,1,2.68,1.11l5.1,5.1A4.39,4.39,0,0,1,32.75,14.4ZM30.66,16h-6.8a1.57,1.57,0,0,1-1.57-1.57V7.6H9.74V32.71H30.66ZM14.45,30.62h5.35V28.88H18.27V26.15h2.24a5.62,5.62,0,0,0,1.93-.25,3.85,3.85,0,0,0,2.39-3.81,3.85,3.85,0,0,0-2.24-3.73,5.92,5.92,0,0,0-2.12-.31h-6v1.75h1.5v9.07h-1.5Zm3.83-6.31V19.92h2a2.69,2.69,0,0,1,1.36.29,2.05,2.05,0,0,1,.92,1.88,2,2,0,0,1-1,2,3,3,0,0,1-1.27.25Zm6.11-10.43h6.15a2.08,2.08,0,0,0-.36-.67L25.05,8.09a2.09,2.09,0,0,0-.67-.36Z" transform="translate(0 0)"/></g></svg>