<svg xmlns="http://www.w3.org/2000/svg" viewBox="0 0 70 70"><defs><style>.cls-1{fill:#3287c0;}.cls-2{fill:#fff;}</style></defs><title>70x70_word</title><g id="圖層_3" data-name="圖層 3"><rect class="cls-1" width="70" height="70"/></g><g id="word"><path class="cls-2" d="M57.34,25v33a2.76,2.76,0,0,1-2.75,2.76H16a2.76,2.76,0,0,1-2.75-2.76V12.18A2.75,2.75,0,0,1,16,9.43h25.7a7.7,7.7,0,0,1,4.7,2l8.95,8.95A7.7,7.7,0,0,1,57.34,25Zm-3.67,2.75H41.74A2.75,2.75,0,0,1,39,25V13.1H17V57.16H53.67ZM20,34.53h2l4.7,19h4.56l3.67-13.91a6.66,6.66,0,0,0,.29-1.32,5.35,5.35,0,0,0,.06-.69h.12l.09.69a13.31,13.31,0,0,0,.26,1.32l3.67,13.91h4.56l4.7-19h2V31.46H42.05v3.07h2.58L41.79,47.09a8.11,8.11,0,0,0-.2,1.32l-.06.6h-.12a4.84,4.84,0,0,0-.09-.6c-.09-.37-.14-.86-.26-1.32L36.95,31.46H33.67L29.54,47.09c-.12.46-.14.95-.23,1.32l-.12.6h-.12l-.06-.6a8.11,8.11,0,0,0-.2-1.32L26,34.53h2.58V31.46H20ZM42.65,24.12H53.44a3.66,3.66,0,0,0-.63-1.18l-9-9a3.66,3.66,0,0,0-1.18-.63Z"/></g></svg>