<svg xmlns="http://www.w3.org/2000/svg" viewBox="0 0 70 70"><defs><style>.cls-1{fill:#da4a31;}.cls-2{fill:#fff;}</style></defs><title>70x70_ppt</title><g id="圖層_3_拷貝" data-name="圖層 3 拷貝"><rect class="cls-1" width="70" height="70"/></g><g id="ppt"><path class="cls-2" d="M57.27,25.07V58a2.75,2.75,0,0,1-2.75,2.74H16.09A2.75,2.75,0,0,1,13.35,58V12.25a2.75,2.75,0,0,1,2.75-2.75H41.72a7.67,7.67,0,0,1,4.69,1.94l8.92,8.92A7.67,7.67,0,0,1,57.27,25.07Zm-3.66,2.75H41.72A2.75,2.75,0,0,1,39,25.07V13.17H17V57.1H53.61ZM25.24,53.44H34.6v-3H31.94V45.63h3.92a9.84,9.84,0,0,0,3.38-.43c2.57-.89,4.18-3.55,4.18-6.66A6.74,6.74,0,0,0,39.48,32a10.36,10.36,0,0,0-3.72-.54H25.24v3.06h2.63V50.4H25.24Zm6.69-11V34.73h3.43a4.71,4.71,0,0,1,2.37.52,3.59,3.59,0,0,1,1.6,3.29A3.53,3.53,0,0,1,37.57,42a5.18,5.18,0,0,1-2.23.43Zm10.7-18.25H53.38A3.63,3.63,0,0,0,52.75,23l-9-9a3.66,3.66,0,0,0-1.17-.63Z"/></g></svg>