<?xml version="1.0" encoding="utf-8"?>
<!-- Generator: Adobe Illustrator 20.0.0, SVG Export Plug-In . SVG Version: 6.00 Build 0)  -->
<svg version="1.1" id="圖層_1" xmlns="http://www.w3.org/2000/svg" xmlns:xlink="http://www.w3.org/1999/xlink" x="0px" y="0px"
	 viewBox="0 0 40 40" style="enable-background:new 0 0 40 40;" xml:space="preserve">
<style type="text/css">
	.st0{fill:#30BA51;}
	.st1{fill:#FFFFFF;}
</style>
<title>40x40_ppt</title>
<g id="圖層_1_1_">
	<g id="圖層_2">
		<rect x="0" class="st0" width="40" height="40"/>
	</g>
</g>
<g id="圖層_2_1_">
	<g>
		<path class="st1" d="M32.5,14.5v18.7c0,0.9-0.7,1.6-1.6,1.6H9.1c-0.9,0-1.6-0.7-1.6-1.6v-26c0-0.9,0.7-1.6,1.6-1.6h14.5
			c0.9,0,2.1,0.5,2.7,1.1l5.1,5.1C32,12.5,32.5,13.7,32.5,14.5z M30.4,16.1h-6.8c-0.9,0-1.6-0.7-1.6-1.6V7.8H9.6v24.9h20.8V16.1z
			 M14.5,30.6h4.6v-1.7h-1.2l1.7-2.6c0.2-0.3,0.3-0.6,0.3-0.6h0c0,0.1,0,0.1,0.1,0.2c0.1,0.1,0.2,0.2,0.3,0.4l1.7,2.6h-1.2v1.7h4.7
			v-1.7h-1.1l-3.1-4.4l3.2-4.6h1.1v-1.7H21v1.7h1.2l-1.7,2.6c-0.2,0.3-0.3,0.6-0.3,0.5h0c0-0.1,0-0.1-0.1-0.2
			c-0.1-0.1-0.1-0.2-0.3-0.4l-1.7-2.6h1.2v-1.7h-4.7v1.7h1.1l3.1,4.4l-3.1,4.6h-1.1V30.6z M24.2,14h6.1c-0.1-0.3-0.2-0.6-0.4-0.7
			l-5.1-5.1c-0.1-0.1-0.4-0.3-0.7-0.4V14z"/>
	</g>
</g>
</svg>
