<?xml version="1.0" encoding="utf-8"?>
<!-- Generator: Adobe Illustrator 20.0.0, SVG Export Plug-In . SVG Version: 6.00 Build 0)  -->
<svg version="1.1" id="圖層_2" xmlns="http://www.w3.org/2000/svg" xmlns:xlink="http://www.w3.org/1999/xlink" x="0px" y="0px"
	 viewBox="0 0 70 70" style="enable-background:new 0 0 70 70;" xml:space="preserve">
<style type="text/css">
	.st0{fill:#30BA51;}
	.st1{fill:#FFFFFF;}
</style>
<g id="圖層_1_1_">
	<g id="圖層_2_1_">
		<rect x="0" y="0.1" class="st0" width="70" height="70"/>
	</g>
</g>
<g>
	<path class="st1" d="M56.8,25.1V58c0,1.5-1.2,2.7-2.7,2.7H15.9c-1.5,0-2.7-1.2-2.7-2.7V12.3c0-1.5,1.2-2.7,2.7-2.7h25.4
		c1.5,0,3.6,0.9,4.7,1.9l8.9,8.9C55.9,21.4,56.8,23.5,56.8,25.1z M53.2,27.8H41.4c-1.5,0-2.7-1.2-2.7-2.7V13.2H16.9V57h36.3V27.8z
		 M25.4,53.4h8v-3h-2.1l2.9-4.6c0.3-0.5,0.5-1,0.6-1h0.1c0,0.1,0.1,0.2,0.1,0.3c0.1,0.2,0.3,0.4,0.5,0.7l3,4.6h-2.2v3h8.3v-3h-1.9
		l-5.5-7.8l5.5-8.1h1.9v-3.1h-7.9v3.1h2.1L35.9,39c-0.3,0.5-0.6,1-0.6,0.9h-0.1c0-0.1-0.1-0.2-0.1-0.3c-0.1-0.2-0.3-0.4-0.5-0.7
		l-3-4.5h2.2v-3.1h-8.2v3.1h1.9l5.4,7.8l-5.5,8.1h-1.9V53.4z M42.3,24.1H53c-0.2-0.5-0.4-1-0.6-1.2L43.5,14
		c-0.2-0.2-0.7-0.5-1.2-0.6V24.1z"/>
</g>
</svg>
