<?xml version="1.0" encoding="utf-8"?>
<!-- Generator: Adobe Illustrator 20.0.0, SVG Export Plug-In . SVG Version: 6.00 Build 0)  -->
<svg version="1.1" id="圖層_1" xmlns="http://www.w3.org/2000/svg" xmlns:xlink="http://www.w3.org/1999/xlink" x="0px" y="0px"
	 viewBox="0 0 40 40" style="enable-background:new 0 0 40 40;" xml:space="preserve">
<style type="text/css">
	.st0{fill:#3287C0;}
	.st1{fill:#FFFFFF;}
</style>
<title>40x40_word</title>
<g id="圖層_2">
	<rect y="0" class="st0" width="40" height="40"/>
</g>
<g id="圖層_1_1_">
	<g id="圖層_4">
		<path class="st1" d="M32.8,14.3v18.9c0,0.9-0.7,1.6-1.6,1.6c0,0,0,0,0,0h-22c-0.9,0-1.6-0.7-1.6-1.6c0,0,0,0,0,0V7
			c0-0.9,0.7-1.6,1.6-1.6c0,0,0,0,0,0h14.7c1,0,2,0.4,2.7,1.1l5.1,5.1C32.4,12.3,32.8,13.3,32.8,14.3z M30.7,15.9h-6.8
			c-0.9,0-1.6-0.7-1.6-1.6c0,0,0,0,0,0V7.5H9.7v25.2h21L30.7,15.9z M11.4,19.7h1.1l2.7,10.8h2.6l2.1-7.9c0.1-0.2,0.1-0.5,0.2-0.8
			v-0.4h0.1v0.4c0,0.2,0.1,0.5,0.1,0.8l2.1,7.9H25l2.7-10.8h1.1V18H24v1.8h1.5L23.9,27c-0.1,0.3-0.1,0.5-0.1,0.8v0.3h-0.1v-0.3
			c0-0.2-0.1-0.5-0.1-0.8l-2.5-9h-1.9l-2.4,8.9c-0.1,0.3-0.1,0.5-0.1,0.8V28h-0.1v-0.3c0-0.3,0-0.5-0.1-0.8l-1.6-7.2h1.5V18h-4.9
			v1.7H11.4z M24.4,13.8h6.2c-0.1-0.3-0.2-0.6-0.4-0.7L25,8c-0.2-0.2-0.4-0.3-0.7-0.4v6.2L24.4,13.8z"/>
	</g>
</g>
</svg>
