<?xml version="1.0" encoding="utf-8"?>
<!-- Generator: Adobe Illustrator 21.1.0, SVG Export Plug-In . SVG Version: 6.00 Build 0)  -->
<svg version="1.1" id="圖層_1" xmlns="http://www.w3.org/2000/svg" xmlns:xlink="http://www.w3.org/1999/xlink" x="0px" y="0px"
	 viewBox="0 0 32 32" style="enable-background:new 0 0 32 32;" xml:space="preserve">
<style type="text/css">
	.st0{fill:#FFFFFF;}
	.st1{fill:#F06636;}
	.st2{fill:#F08736;}
</style>
<g>
	<g>
		<path class="st0" d="M19.5,12.9h-2v-2v-6h-11v22.2h19V12.9H19.5z M15.6,12.9v5.7H9.9C9.9,15.5,12.5,12.9,15.6,12.9z M16.6,24.1
			c-2.5,0-4.5-2-4.5-4.5h4.5v-4.5c2.5,0,4.5,2,4.5,4.5S19.1,24.1,16.6,24.1z"/>
		<polygon class="st0" points="19.5,5.8 19.5,11 24.7,11 		"/>
	</g>
	<g>
		<path class="st1" d="M25.5,8.9l-4-4l-2-2h-2h-0.8H4.5v2v22.2v2h23v-2V13.8V13v-2.1L25.5,8.9z M19.5,5.8l5.2,5.2h-5.2V5.8z
			 M25.5,27.1h-19V4.9h11v6v2h2h6V27.1z"/>
		<path class="st2" d="M16.6,19.6h-4.5c0,2.5,2,4.5,4.5,4.5s4.5-2,4.5-4.5s-2-4.5-4.5-4.5V19.6z"/>
		<path class="st1" d="M15.6,12.9c-3.1,0-5.7,2.5-5.7,5.7h5.7V12.9z"/>
	</g>
</g>
</svg>
