<?xml version="1.0" encoding="utf-8"?>
<!-- Generator: Adobe Illustrator 21.1.0, SVG Export Plug-In . SVG Version: 6.00 Build 0)  -->
<svg version="1.1" id="圖層_1" xmlns="http://www.w3.org/2000/svg" xmlns:xlink="http://www.w3.org/1999/xlink" x="0px" y="0px"
	 viewBox="0 0 32 32" style="enable-background:new 0 0 32 32;" xml:space="preserve">
<style type="text/css">
	.st0{fill:#FFFFFF;}
	.st1{fill:#6CD000;}
	.st2{fill:#AFE600;}
</style>
<g>
	<g>
		<path class="st0" d="M19.6,13h-2v-2V5h-11v22.2h19V13H19.6z M13.1,23.1h-2V15h2V23.1z M17.1,23.1h-2V19h2V23.1z M21.1,23.1h-2V17
			h2V23.1z"/>
		<polygon class="st0" points="19.6,5.9 19.6,11.1 24.8,11.1 		"/>
	</g>
	<g>
		<path class="st1" d="M25.6,9l-4-4l-2-2h-2h-0.8H4.6v2v22.2v2h23v-2V13.9V13v-2L25.6,9z M19.6,5.9l5.2,5.2h-5.2V5.9z M25.6,27.2
			h-19V5h11v6v2h2h6V27.2z"/>
		<rect x="19.1" y="17" class="st1" width="2" height="6.1"/>
		<rect x="11.1" y="15" class="st1" width="2" height="8.1"/>
		<rect x="15.1" y="19" class="st2" width="2" height="4.1"/>
	</g>
</g>
</svg>
