<?xml version="1.0" encoding="UTF-8" standalone="no"?>
<!-- Created with Inkscape (http://www.inkscape.org/) -->

<svg
   xmlns:dc="http://purl.org/dc/elements/1.1/"
   xmlns:cc="http://creativecommons.org/ns#"
   xmlns:rdf="http://www.w3.org/1999/02/22-rdf-syntax-ns#"
   xmlns:svg="http://www.w3.org/2000/svg"
   xmlns="http://www.w3.org/2000/svg"
   xmlns:sodipodi="http://sodipodi.sourceforge.net/DTD/sodipodi-0.dtd"
   xmlns:inkscape="http://www.inkscape.org/namespaces/inkscape"
   width="40"
   height="40"
   viewBox="0 0 10.583333 10.583334"
   version="1.1"
   id="svg407"
   inkscape:version="0.92.1 r15371"
   sodipodi:docname="logo_OSSII2.svg">
  <defs
     id="defs401" />
  <sodipodi:namedview
     id="base"
     pagecolor="#ffffff"
     bordercolor="#666666"
     borderopacity="1.0"
     inkscape:pageopacity="0.0"
     inkscape:pageshadow="2"
     inkscape:zoom="2.8"
     inkscape:cx="26.248607"
     inkscape:cy="122.48706"
     inkscape:document-units="mm"
     inkscape:current-layer="layer1"
     showgrid="false"
     inkscape:window-width="1920"
     inkscape:window-height="1017"
     inkscape:window-x="-8"
     inkscape:window-y="32"
     inkscape:window-maximized="1"
     units="px" />
  <metadata
     id="metadata404">
    <rdf:RDF>
      <cc:Work
         rdf:about="">
        <dc:format>image/svg+xml</dc:format>
        <dc:type
           rdf:resource="http://purl.org/dc/dcmitype/StillImage" />
        <dc:title></dc:title>
      </cc:Work>
    </rdf:RDF>
  </metadata>
  <g
     inkscape:label="圖層 1"
     inkscape:groupmode="layer"
     id="layer1"
     transform="translate(0,-286.41665)">
    <g
       transform="matrix(0.06528976,0,0,0.06528976,1.0223655,286.42534)"
       id="g329">
      <g
         id="g327">
        <path
           style="fill:#de6f00"
           inkscape:connector-curvature="0"
           id="path321"
           d="m 63.4,14.1 c -8.2,0 -14.8,6.6 -14.8,14.8 0,8.2 6.6,14.8 14.8,14.8 8.2,0 14.8,-6.6 14.8,-14.8 C 78.1,20.8 71.5,14.1 63.4,14.1 Z m 0,23.9 c -5,0 -9.1,-4.1 -9.1,-9.1 0,-5 4.1,-9.1 9.1,-9.1 5,0 9.1,4.1 9.1,9.1 0,5 -4.1,9.1 -9.1,9.1 z" />
        <path
           style="fill:#5b452e"
           inkscape:connector-curvature="0"
           id="path323"
           d="m 109,72.6 c 0,0 0,0 0,0 0,-2.2 -1.7,-4 -3.9,-4.1 H 104.3 58.2 C 57.7,68.5 57.7,68 57.7,68 V 54.3 h 11.1 v 7.1 l 5.1,3.1 V 49.7 c 0,-0.5 -0.5,-0.5 -0.5,-0.5 H 53.1 c -0.5,0 -0.5,0.5 -0.5,0.5 V 73 73 h 50.1 c 0,0 1.9,-0.1 1.9,1.9 v 8.8 c 0,1.9 -1.8,1.9 -1.8,1.9 H 35.5 c -0.7,-1 -1.9,-1.7 -3.2,-1.7 -2.2,0 -3.9,1.8 -3.9,3.9 0,2.2 1.7,3.9 3.9,3.9 1.3,0 2.5,-0.7 3.2,-1.7 h 68.7 c 0,0 0.1,0 0.1,0 v 0 0 c 2.2,-0.1 4.7,-1.8 4.7,-4 0,0 0,0 0,0 z" />
        <path
           style="fill:#5b452e"
           inkscape:connector-curvature="0"
           id="path325"
           d="m 21,94.4 c 0,0 0,0 0,0 0,2.2 1.7,4 3.9,4.1 h 0.8 42.5 c 0.5,0 0.5,0.5 0.5,0.5 v 42.9 h -11 v -36.2 l -5.1,-3.1 v 43.9 c 0,0.5 0.5,0.5 0.5,0.5 h 20.2 c 0.5,0 0.5,-0.5 0.5,-0.5 V 94 94 H 27.3 c 0,0 -1.9,0.1 -1.9,-1.9 v -8.9 c 0,-1.9 1.8,-1.9 1.8,-1.9 h 67.2 c 0.7,1 1.9,1.7 3.2,1.7 2.2,0 3.9,-1.8 3.9,-3.9 0,-2.2 -1.8,-3.9 -3.9,-3.9 -1.3,0 -2.5,0.7 -3.2,1.7 H 25.7 c 0,0 -0.1,0 -0.1,0 v 0 0 c -2.2,0.1 -4.7,1.8 -4.7,4 0,0 0,0 0,0 v 13.5 z" />
      </g>
    </g>
  </g>
</svg>
